<svg width="1080" height="1080" viewBox="0 0 1080 1080" fill="none" xmlns="http://www.w3.org/2000/svg">
<path d="M159.5 652.5L111 630V624.5L337.5 153.5L385 170.5L258 443L295.5 459L221.5 621C220.667 616.833 218.5 607 216.5 601C214 593.5 211.5 550.5 212.5 542.5C213.5 534.5 201.5 518 198.5 515C196.1 512.6 183.5 514 177.5 515L168 522V533.5L159.5 550.5V572.5L156.5 588L159.5 608.5V652.5Z" fill="#3478E9"/>
<path d="M403 647L381 641.5L377.5 617.5L372 572.5V533.5L390.5 497.5L412 507V542.5L407.5 560L403 647Z" fill="#3478E9"/>
<path d="M609 771V766.5V728.5L618.5 701L634.5 647L653 598L673.5 605L609 771Z" fill="#3478E9"/>
<path d="M706 284L643 452V453L647 452C677.4 440.4 685 467.167 685 482L751.5 301L706 284Z" fill="#3478E9"/>
<path d="M599 247.5L499.5 485L504.5 447.5L512 425L519.5 399C516.7 387 520.667 375 523 370.5C525.8 346.5 511.833 335.833 504.5 333.5L549 228L599 247.5Z" fill="#3478E9"/>
<path d="M1027 395L971.5 375L819 866.5L845.5 859.5C885.9 859.5 883.333 892.5 877 909L852.5 936.5L909 958.5L976 724.5L935 707V701L1027 395Z" fill="#3478E9"/>
<path d="M159.5 652.5L111 630V624.5L337.5 153.5L385 170.5L258 443L295.5 459L221.5 621C220.667 616.833 218.5 607 216.5 601C214 593.5 211.5 550.5 212.5 542.5C213.5 534.5 201.5 518 198.5 515C196.1 512.6 183.5 514 177.5 515L168 522V533.5L159.5 550.5V572.5L156.5 588L159.5 608.5V652.5Z" stroke="#0060FF"/>
<path d="M403 647L381 641.5L377.5 617.5L372 572.5V533.5L390.5 497.5L412 507V542.5L407.5 560L403 647Z" stroke="#0060FF"/>
<path d="M609 771V766.5V728.5L618.5 701L634.5 647L653 598L673.5 605L609 771Z" stroke="#0060FF"/>
<path d="M706 284L643 452V453L647 452C677.4 440.4 685 467.167 685 482L751.5 301L706 284Z" stroke="#0060FF"/>
<path d="M599 247.5L499.5 485L504.5 447.5L512 425L519.5 399C516.7 387 520.667 375 523 370.5C525.8 346.5 511.833 335.833 504.5 333.5L549 228L599 247.5Z" stroke="#0060FF"/>
<path d="M1027 395L971.5 375L819 866.5L845.5 859.5C885.9 859.5 883.333 892.5 877 909L852.5 936.5L909 958.5L976 724.5L935 707V701L1027 395Z" stroke="#0060FF"/>
</svg>
